<svg xmlns="http://www.w3.org/2000/svg" viewBox="0 0 100 100" preserveAspectRatio="xMidYMid" width="174" height="174" style="shape-rendering: auto; display: block; background: transparent;" xmlns:xlink="http://www.w3.org/1999/xlink"><g><g transform="translate(50 50)">
<g>
<animateTransform attributeName="transform" type="rotate" values="0;45" keyTimes="0;1" dur="0.5882352941176471s" repeatCount="indefinite"></animateTransform><path d="M36.79334178897046 -9.5 L45.79334178897046 -9.5 L45.79334178897046 9.5 L36.79334178897046 9.5 A38 38 0 0 1 32.73433590276759 19.29930706022319 L32.73433590276759 19.29930706022319 L39.09829693344652 25.66326809090212 L25.663268090902122 39.09829693344652 L19.299307060223192 32.73433590276759 A38 38 0 0 1 9.5 36.79334178897046 L9.5 36.79334178897046 L9.5 45.79334178897046 L-9.499999999999996 45.79334178897046 L-9.499999999999996 36.79334178897046 A38 38 0 0 1 -19.29930706022318 32.7343359027676 L-19.29930706022318 32.7343359027676 L-25.66326809090211 39.09829693344653 L-39.09829693344652 25.663268090902115 L-32.73433590276759 19.299307060223185 A38 38 0 0 1 -36.79334178897046 9.50000000000001 L-36.79334178897046 9.50000000000001 L-45.79334178897046 9.500000000000012 L-45.79334178897046 -9.5 L-36.79334178897046 -9.500000000000002 A38 38 0 0 1 -32.7343359027676 -19.299307060223178 L-32.7343359027676 -19.299307060223178 L-39.09829693344653 -25.663268090902108 L-25.66326809090212 -39.09829693344652 L-19.29930706022319 -32.73433590276759 A38 38 0 0 1 -9.500000000000012 -36.79334178897046 L-9.500000000000012 -36.79334178897046 L-9.500000000000014 -45.79334178897046 L9.499999999999996 -45.79334178897046 L9.499999999999998 -36.79334178897046 A38 38 0 0 1 19.299307060223178 -32.7343359027676 L19.299307060223178 -32.7343359027676 L25.663268090902108 -39.09829693344653 L39.09829693344652 -25.66326809090212 L32.73433590276759 -19.29930706022319 A38 38 0 0 1 36.79334178897046 -9.500000000000014 M0 -21A21 21 0 1 0 0 21 A21 21 0 1 0 0 -21" fill="#291760"></path></g></g><g></g></g><!-- [ldio] generated by https://loading.io --></svg>